<svg id="Layer_1" data-name="Layer 1" xmlns="http://www.w3.org/2000/svg" viewBox="0 0 1024 766"><defs><style>.cls-1{fill:#fff;fill-rule:evenodd;}</style></defs><path class="cls-1" d="M489,894.35c-53.21,0-106.42.18-159.63,0C164.68,893.66,26.87,773.91,3.32,611.12c-26.38-182.41,107.43-354,290.72-372,22.88-2.24,46.17,0,69.23-.93,5.69-.23,12.21-3.59,16.63-7.47,44.22-38.79,93.64-68.13,150.19-85.23,227.26-68.7,462.77,84.38,491.08,319.3,24.41,202.59-111.44,387.6-312,423.87-23.43,4.23-47.61,5.43-71.48,5.84-49.54.87-99.1.27-148.65.27Zm27.29-570.21c2.47-1.46,5.6-3.28,8.71-5.14a226,226,0,0,1,263.33,22.64c73.3,63.18,97.75,167.34,60.37,257.16C788.09,744.49,599,784.05,485.13,674.32c-46.48-44.79-91.44-91.15-137.2-136.68-16.05-16-35.52-16.92-49.65-2.85s-13.31,33.66,2.58,49.59c45.3,45.42,90.09,91.37,136.25,135.9,66.86,64.47,147.55,92.05,239.57,80.8,162.59-19.87,274.93-167.31,252.79-329.2C899.45,252.36,642,145.51,465.4,279.34c-3.38,2.56-6.57,5.4-9.88,8.13Zm-85,479.07c-16.36-14.92-31.25-25.89-42.83-39.64-17.78-21.1-38.1-32.68-66.16-27.41a12.37,12.37,0,0,1-2.43,0c-97.09-3.57-175.12-96.75-160.23-192.51,10.79-69.45,49.67-118,116.36-139.94s126.57-6,176.85,43.33c31,30.42,61.38,61.46,92.28,92,14.37,14.2,34.62,14.38,47.91,1.12s13.15-33.43-1.12-47.84c-32.85-33.16-65.23-66.83-99.24-98.78-56.5-53.09-124.06-73.58-200.67-61.94C185.53,347.71,100.93,439,92.79,542.88,82.84,669.82,166.13,764.73,261,792.75,316.06,809,372.21,799.51,431.33,803.21Z" transform="translate(0 -129)"/></svg>