<svg id="Слой_1" data-name="Слой 1" xmlns="http://www.w3.org/2000/svg" viewBox="0 0 12 12"><defs><style>.cls-1{fill:#fff;}</style></defs><path class="cls-1" d="M13,10.43V13H1V10.43a1.56,1.56,0,0,0,.57-.1A1.44,1.44,0,0,0,2,10.15a3.67,3.67,0,0,0,.32-.25,1.92,1.92,0,0,1,.34-.26A1,1,0,0,1,3,9.57a.9.9,0,0,1,.37.07,2.35,2.35,0,0,1,.36.26,2.41,2.41,0,0,0,.31.25,1.44,1.44,0,0,0,.39.18,1.56,1.56,0,0,0,.57.1,1.48,1.48,0,0,0,.57-.1A1.44,1.44,0,0,0,6,10.15l.32-.25a1.75,1.75,0,0,1,.22-.18.69.69,0,0,1,.21-.1.88.88,0,0,1,.29,0,.82.82,0,0,1,.38.08,1.44,1.44,0,0,1,.34.25,3.67,3.67,0,0,0,.32.25,1.76,1.76,0,0,0,.39.19,1.85,1.85,0,0,0,1.14,0,2.17,2.17,0,0,0,.4-.19,3.78,3.78,0,0,0,.31-.25,1.45,1.45,0,0,1,.35-.25A.78.78,0,0,1,11,9.57a.82.82,0,0,1,.38.08,1.44,1.44,0,0,1,.34.25,3.67,3.67,0,0,0,.32.25,1.76,1.76,0,0,0,.39.19,1.79,1.79,0,0,0,.57.09Zm0-2.14V9.57a.76.76,0,0,1-.37-.07,2.36,2.36,0,0,1-.35-.26L12,9a1.44,1.44,0,0,0-.39-.18,1.48,1.48,0,0,0-.57-.1,1.56,1.56,0,0,0-.57.1A1.44,1.44,0,0,0,10,9a3.78,3.78,0,0,0-.31.25,1.67,1.67,0,0,1-.23.18.53.53,0,0,1-.2.1.73.73,0,0,1-.3.05.86.86,0,0,1-.38-.07,1.92,1.92,0,0,1-.34-.26L8,9a1.5,1.5,0,0,0-.38-.18A1.57,1.57,0,0,0,7,8.71a1.8,1.8,0,0,0-.57.1A2.52,2.52,0,0,0,6,9l-.32.25a1.24,1.24,0,0,1-.22.18.75.75,0,0,1-.2.1.94.94,0,0,1-.3.05.79.79,0,0,1-.37-.07,1.93,1.93,0,0,1-.35-.26A3.78,3.78,0,0,0,4,9a1.71,1.71,0,0,0-.4-.18A1.56,1.56,0,0,0,3,8.71a1.52,1.52,0,0,0-.57.1A1.44,1.44,0,0,0,2,9l-.32.25a1.92,1.92,0,0,1-.34.26A.83.83,0,0,1,1,9.57V8.29a1.19,1.19,0,0,1,.38-.91A1.19,1.19,0,0,1,2.29,7h.42V4H4.43V7H6.14V4H7.86V7H9.57V4h1.72V7h.42A1.3,1.3,0,0,1,13,8.29ZM4.43,2.5a1.17,1.17,0,0,1-.24.79.77.77,0,0,1-.62.28A.79.79,0,0,1,3,3.32a.83.83,0,0,1-.26-.61.89.89,0,0,1,.07-.34.47.47,0,0,1,.16-.22L3.14,2a2.08,2.08,0,0,0,.21-.21.84.84,0,0,0,.16-.3A1.53,1.53,0,0,0,3.57,1c.17,0,.36.17.56.5A1.9,1.9,0,0,1,4.43,2.5Zm3.43,0a1.17,1.17,0,0,1-.24.79A.77.77,0,0,1,7,3.57a.82.82,0,0,1-.61-.25.86.86,0,0,1-.25-.61.74.74,0,0,1,.07-.34.53.53,0,0,1,.15-.22L6.57,2a2.08,2.08,0,0,0,.21-.21,1,1,0,0,0,.16-.3A1.53,1.53,0,0,0,7,1c.17,0,.35.17.56.5A1.9,1.9,0,0,1,7.86,2.5Zm3.43,0a1.12,1.12,0,0,1-.25.79.75.75,0,0,1-.61.28.82.82,0,0,1-.61-.25.86.86,0,0,1-.25-.61.74.74,0,0,1,.07-.34.53.53,0,0,1,.15-.22L10,2l.21-.21a.84.84,0,0,0,.15-.3A1.25,1.25,0,0,0,10.43,1c.17,0,.35.17.55.5A1.83,1.83,0,0,1,11.29,2.5Z" transform="translate(-1 -1)"/></svg>