<svg id="Слой_1" data-name="Слой 1" xmlns="http://www.w3.org/2000/svg" viewBox="0 0 31.93 31.7"><defs><style>.cls-1{fill:#fff;}</style></defs><path class="cls-1" d="M1,16.27l-.11-.06a1.36,1.36,0,0,1-.56-.58,2,2,0,0,1-.27-1l0-.18a1.55,1.55,0,0,1,.18-.73l.11-.2a1.49,1.49,0,0,1,.2-.29.37.37,0,0,0,.07-.32L.6,12.69a2.72,2.72,0,0,1-.13-.79l0-.17a1.26,1.26,0,0,1,.26-.8l.14-.17a.82.82,0,0,1,.4-.27.38.38,0,0,0,.24-.33l0-.45a1.32,1.32,0,0,1,.43-.94l.33-.24a.79.79,0,0,0,.18-.24A.35.35,0,0,0,2.51,8c0-.13,0-.17.07-.18s.34,0,.44-.06l.17-.22L3.67,7a.5.5,0,0,0,.1-.55l-.15-.35a.16.16,0,0,1,.07-.2A.34.34,0,0,1,4,6.09l0,.1a.31.31,0,0,0,.4.17,2.05,2.05,0,0,1,.76-.13h.43a.6.6,0,0,0,.59-.51,1.55,1.55,0,0,1,.37-.87,2.2,2.2,0,0,1,.69-.53A1.14,1.14,0,0,0,8,3.52a1.44,1.44,0,0,1,.63-.93l1-.57.29-.18a1.81,1.81,0,0,0,.47-.4l.27-.32a.9.9,0,0,1,.43-.27,1.42,1.42,0,0,1,.47,0l.54,0a1.75,1.75,0,0,1,.69.16l.13.07A.29.29,0,0,0,13.22,1l.12-.07.57-.6a.53.53,0,0,1,.47-.16,1.58,1.58,0,0,1,.5.18,1.33,1.33,0,0,0,.67.18h.14a3.85,3.85,0,0,1,.88.11l.19,0A.54.54,0,0,0,17.3.5a.11.11,0,0,1,.18,0s.05.05.07.09a.59.59,0,0,0,.4.53l.22.07a1.06,1.06,0,0,1,.55.4,2.24,2.24,0,0,0,.48.53l.14.14a.65.65,0,0,0,.5.17h.79a2.39,2.39,0,0,1,.94.19,1.1,1.1,0,0,0,.87,0,2.16,2.16,0,0,1,.91-.09l.57.09a1.06,1.06,0,0,1,.7.36l.07.07a3.49,3.49,0,0,1,.39.49.5.5,0,0,0,.45.27h.83a1.2,1.2,0,0,1,.57.13c.17.13.31.27.45.4l.13.18a1,1,0,0,1,.23.7.38.38,0,0,0,.37.4l.27,0a.53.53,0,0,1,.44.3l.13.27L29.3,7a.89.89,0,0,1,.05.38.31.31,0,0,0,.13.29l.14.1a.62.62,0,0,1,.24.56l-.1.62,0,.27a.41.41,0,0,0,.16.4.62.62,0,0,1,.3.51v.26a.57.57,0,0,1-.13.4.66.66,0,0,0-.13.4l0,.31a.79.79,0,0,0,.26.53.84.84,0,0,1,.33.56,5.61,5.61,0,0,1,.06.87v.31a.8.8,0,0,0,0,.31.56.56,0,0,0,.17.25l.27.2a1.28,1.28,0,0,1,.56.71,2,2,0,0,1,.17.9v.11a2.1,2.1,0,0,1-.1.71,1,1,0,0,0,0,.67,1.66,1.66,0,0,1,.2.63,1.26,1.26,0,0,1-.07.75l0,.09a1.31,1.31,0,0,1-.31.43c-.14.13-.27.21-.35.3a.35.35,0,0,0-.09.34l0,.19a1.67,1.67,0,0,1,0,.77v.1a2.9,2.9,0,0,1-.22.54,1,1,0,0,1-.39.4l-.21.13a.35.35,0,0,0-.16.29.52.52,0,0,1-.13.35l-.2.27a1.15,1.15,0,0,1-.49.39,3.36,3.36,0,0,0-.47.41,1.45,1.45,0,0,0-.29.53.44.44,0,0,1-.44.37h-.72a.52.52,0,0,0-.44.3,1.88,1.88,0,0,1-.31.49,1.2,1.2,0,0,0-.27.48c0,.16-.16.27-.29.21a.34.34,0,0,0-.43.14,3.07,3.07,0,0,1-.49.64l-.09.08a1.11,1.11,0,0,1-.61.24c-.24,0-.35.1-.39.26a2.33,2.33,0,0,0-.08.46,2.83,2.83,0,0,1-.13.44l-.07.08c-.14.2-.24.4-.38.57l-.05.08a1.22,1.22,0,0,1-.67.47,2.85,2.85,0,0,1-.88.13H21.7a.45.45,0,0,0-.36.22l-.08.13-.08.16L21,30.8a1,1,0,0,1-.6.48,2.67,2.67,0,0,1-.85.08l-.21,0a1.22,1.22,0,0,1-.53-.13.36.36,0,0,0-.41.13.84.84,0,0,1-.46.35l-.41.13a1.67,1.67,0,0,1-.83,0l-.22-.06a.82.82,0,0,1-.37-.13.73.73,0,0,0-.4-.09l-.18,0a2,2,0,0,1-.74-.06l-.36-.09a.71.71,0,0,1-.4-.3.56.56,0,0,0-.4-.27H13.2a1,1,0,0,1-.67-.33L12,30l-.19-.16-.29-.21-.17-.13a1.53,1.53,0,0,0-.7-.27l-.79-.13a.79.79,0,0,1-.22-.05L9.33,29A.6.6,0,0,1,9,28.72a.29.29,0,0,0-.36-.13,3.71,3.71,0,0,1-.7.17H7.74a1.88,1.88,0,0,1-1-.17A1.71,1.71,0,0,1,6,28a1.06,1.06,0,0,0-.7-.45L5,27.47a2.3,2.3,0,0,1-.78-.32,1.41,1.41,0,0,1-.5-.58,1.59,1.59,0,0,1-.19-.66V25.8A.65.65,0,0,0,3,25.23a1.94,1.94,0,0,1-.74-.4,1,1,0,0,1-.3-.69l0-.59A.76.76,0,0,0,1.79,23a.83.83,0,0,1-.27-.57l0-.48a9.38,9.38,0,0,0-.17-1,.67.67,0,0,1,.29-.76l.09-.07a.33.33,0,0,0,.11-.43l-.11-.13a1,1,0,0,0-.4-.26.21.21,0,0,1-.13-.2l.13-.17a.24.24,0,0,0,0-.31.69.69,0,0,1-.17-.38l0-.93a2.1,2.1,0,0,1,.08-.56A.33.33,0,0,0,1,16.26Zm13.19-1.76a.25.25,0,0,0,0-.34,1,1,0,0,1-.3-.36l-.14-.21a1.9,1.9,0,0,0-.34-.45l0,0a1.13,1.13,0,0,1-.31-.4.47.47,0,0,1,0-.4l.08-.13a1,1,0,0,0,.14-.48v-.06a.69.69,0,0,0-.14-.39,1.88,1.88,0,0,1-.13-.38V10.8a.54.54,0,0,1,.11-.47,1.67,1.67,0,0,0,.23-.53v0a.54.54,0,0,0-.06-.44.44.44,0,0,1-.05-.42l.09-.27A1.92,1.92,0,0,1,13.72,8l.19-.2L14,7.64l.08-.08a.27.27,0,0,0,0-.32.58.58,0,0,1-.08-.4l0-.19a1.67,1.67,0,0,1,.31-.74l0-.06a1.51,1.51,0,0,1,.75-.53l.36-.13a.43.43,0,0,0,.27-.4A1,1,0,0,1,16,4.21l.06-.06a7,7,0,0,0,.4-.7l.09-.17a.24.24,0,0,0,.05-.13.41.41,0,0,0-.35-.44l-.59,0c-.33,0-.66,0-1,0l-1.13.13a.33.33,0,0,0-.32.32.42.42,0,0,1-.29.4l-.48.13-.13,0-.41.14a1.06,1.06,0,0,0-.66.6l-.11.17a1.68,1.68,0,0,1-.64.71,1,1,0,0,0-.42.77v.13a1.34,1.34,0,0,1-.27.72L9.76,7a.44.44,0,0,0-.07.45,1.13,1.13,0,0,1,.1.51v.71a.45.45,0,0,1-.27.39.58.58,0,0,0-.36.4l-.07.27a.7.7,0,0,0,.27.7,1,1,0,0,1,.4.69v.24a.93.93,0,0,0,.43.67,1.42,1.42,0,0,1,.53.66l.07.22a.74.74,0,0,0,.61.49h.08a.7.7,0,0,1,.59.35.86.86,0,0,0,.58.4l.38.1a1.46,1.46,0,0,1,.61.36l0,0a.34.34,0,0,0,.47-.06l.09-.1Zm1.52-1.23a.21.21,0,0,0,.32-.08l0-.06a3.33,3.33,0,0,1,.35-.54l.27-.4s.05,0,.06,0l.32-.43a.73.73,0,0,1,.48-.23.41.41,0,0,0,.4-.26,1,1,0,0,1,.3-.51l.06-.08a1.34,1.34,0,0,1,.41-.26,2.85,2.85,0,0,1,.49-.06h.4a.4.4,0,0,0,.37-.2.77.77,0,0,1,.33-.29l.14-.06a2.26,2.26,0,0,1,.69-.18l.27,0a1,1,0,0,1,.49.09.36.36,0,0,0,.44,0l.1-.06a1.41,1.41,0,0,1,.66-.26h0a3.32,3.32,0,0,1,.77,0h.13a1,1,0,0,1,.67.33l0,.05a.82.82,0,0,0,.53.25h.23a.24.24,0,0,0,.18-.1.25.25,0,0,1,.17-.08H26a1.57,1.57,0,0,1,.53.11l.23.09a5,5,0,0,0,.67.16h.16a.16.16,0,0,0,.17-.16.66.66,0,0,0-.09-.37l-.09-.22a4.42,4.42,0,0,1-.27-.53l0-.07a.47.47,0,0,1,0-.4V8.27A.22.22,0,0,0,27.15,8H27a1.1,1.1,0,0,1-.53-.36l-.13-.13A1.11,1.11,0,0,1,26.11,7a.44.44,0,0,0-.4-.3h-.56a.8.8,0,0,1-.5-.29l0-.07a1.78,1.78,0,0,1-.22-.46A.31.31,0,0,0,24,5.68l-.16.05a1.85,1.85,0,0,1-.8.11l-.21,0a1,1,0,0,1-.62-.22l-.13-.1a1.38,1.38,0,0,0-.34-.18.25.25,0,0,0-.32.06l-.06.08a.91.91,0,0,1-.51.27l-.72,0a.57.57,0,0,0-.36.16.77.77,0,0,1-.36.18h0a.79.79,0,0,0-.39.19v0a.71.71,0,0,1-.49.2l-.05,0a2,2,0,0,0-.48,0h-.16a.56.56,0,0,0-.45.46l-.05.31a1.5,1.5,0,0,1-.27.57.65.65,0,0,1-.49.27h-.23a.32.32,0,0,0-.24.33,1.86,1.86,0,0,1,0,.63L16,9.39a.63.63,0,0,1-.37.42l-.08,0h0a.2.2,0,0,0-.07.27.6.6,0,0,1,.09.4l0,.43a1,1,0,0,1-.13.44.41.41,0,0,0,0,.4l.13.29a.63.63,0,0,1,0,.43.9.9,0,0,0-.05.4.37.37,0,0,0,.18.32Zm10.54,9.64a.4.4,0,0,0,.49.08l.27-.17a.79.79,0,0,0,.29-.4v0l.13-.4.08-.13.06-.13.05-.1a.4.4,0,0,1,.27-.23l.05,0a.25.25,0,0,0,.18-.24.59.59,0,0,1,.13-.34l.11-.09.26-.34v0A1,1,0,0,0,28.8,20a.66.66,0,0,0-.05-.39l0-.06a1.15,1.15,0,0,1-.09-.34l0-.38,0-.4a.75.75,0,0,1,.13-.39,1.79,1.79,0,0,0,.22-.38v-.05l0,0c0-.13,0-.27-.16-.27a.56.56,0,0,1-.31-.33l0-.08a3,3,0,0,1-.1-.72l0-.67v0a.4.4,0,0,0-.4-.4h0a.91.91,0,0,1-.67-.26l-.1-.14-.27-.3-.35-.4a2.64,2.64,0,0,0-.44-.51,1,1,0,0,0-.53-.29l-.27-.05a1.29,1.29,0,0,1-.45-.18.29.29,0,0,0-.38.05l-.17.19-.08.05c-.1,0-.18,0-.23-.13a.69.69,0,0,1,0-.51V12.5c0-.1-.08-.17-.16-.14h-.21a1.75,1.75,0,0,1-.71-.13l-.13-.06a1.13,1.13,0,0,0-.44-.1.82.82,0,0,0-.4.1l-.05.05a1.14,1.14,0,0,1-.54.17h-.44a.91.91,0,0,0-.53.17,1.47,1.47,0,0,1-.56.21l-.36.06a1.22,1.22,0,0,0-.48.22,1.08,1.08,0,0,1-.49.27l-.07,0a.92.92,0,0,0-.53.4l-.16.16a.33.33,0,0,0,0,.42.34.34,0,0,0,.4.14l.2-.08a.38.38,0,0,1,.31,0,.43.43,0,0,0,.33.09l.33,0a2.12,2.12,0,0,1,.56.05,1.64,1.64,0,0,1,.53.26,1,1,0,0,0,.53.22,2.81,2.81,0,0,1,.59.13l.13,0a.55.55,0,0,1,.33.27.86.86,0,0,1,.13.4v0a.27.27,0,0,0,.27.26h.07a2.22,2.22,0,0,1,.67.1l.1,0a.78.78,0,0,1,.35.28,1.1,1.1,0,0,1,.22.39l0,.19a3.08,3.08,0,0,1,.05.61v.07a.36.36,0,0,0,.24.32,1.88,1.88,0,0,1,.45.16l.06,0a1.68,1.68,0,0,1,.48.4l.07.09a1.11,1.11,0,0,1,.26.71v.09a1.7,1.7,0,0,1-.1.59.3.3,0,0,0,.17.4l.09.07a1.17,1.17,0,0,1,.51.39,1.24,1.24,0,0,1,.19.67v.4a.91.91,0,0,1-.13.33.29.29,0,0,0,0,.33l.07.13Zm-8.54-6.83h0c-.06,0-.09.07-.07.14l.05.27c0,.21.08.42.11.64a.85.85,0,0,0,.29.53h.05a.86.86,0,0,1,.34.64V19a.45.45,0,0,0,.08.37l.06.06a.93.93,0,0,1,.21.54l0,.73a.33.33,0,0,1-.26.35l-.13,0c-.1,0-.14.11-.14.21a1.06,1.06,0,0,0,.08.33v0a.94.94,0,0,1,0,.41l-.05.35a2.5,2.5,0,0,1-.27.75l-.09.16a.64.64,0,0,1-.27.27.46.46,0,0,0-.27.29l-.1.48a3.1,3.1,0,0,1-.35.8h0a1.91,1.91,0,0,1-.6.53l-.16.11-.4.2a.41.41,0,0,0-.24.32l-.06.44a1.17,1.17,0,0,1-.32.67l-.18.2-.2.2-.2.21a.7.7,0,0,1-.66.23l-.48-.09-.45-.06H13a.18.18,0,0,0,0,.21.48.48,0,0,0,.4.27l.29.06a1,1,0,0,1,.43.13,1.22,1.22,0,0,0,.43.2h0A1.26,1.26,0,0,0,15,29l.2,0a1.16,1.16,0,0,1,.62.08l.16.05a.23.23,0,0,0,.24-.07.69.69,0,0,1,.27-.17l.11,0a1.84,1.84,0,0,1,.53-.08h.11a.81.81,0,0,1,.43.11l.06,0a.24.24,0,0,0,.27-.08.69.69,0,0,1,.22-.27l.33-.23.22-.13.11-.06A.82.82,0,0,1,19.4,28l.48,0a.51.51,0,0,0,.4-.35,1.55,1.55,0,0,1,.26-.57,4.68,4.68,0,0,1,.4-.45,1,1,0,0,1,.53-.22h.11a.44.44,0,0,0,.36-.45V25a1.56,1.56,0,0,1,.16-.44l.27-.4.1-.14a1.51,1.51,0,0,0,.23-.26l.13-.18a.33.33,0,0,0,0-.42,1,1,0,0,1-.23-.51v-.06a1.87,1.87,0,0,1,0-.66v-.07a3.14,3.14,0,0,1,.27-.51.3.3,0,0,0,0-.42l-.23-.2a1,1,0,0,1-.32-.64l0-.27a1.18,1.18,0,0,0,0-.26l0-.21a.77.77,0,0,0-.35-.53l-.09,0a1.43,1.43,0,0,1-.38-.36,1.42,1.42,0,0,1-.19-.51l-.05-.23a.19.19,0,0,0-.13-.17l-.64-.2a.82.82,0,0,1-.36-.23h0a.21.21,0,0,0-.3,0l-.13.14a.07.07,0,0,1-.09,0c-.09,0-.14-.07-.11-.13a.6.6,0,0,0-.23-.56L19,16.45l-.4-.26a.25.25,0,0,0-.32.13l-.05.08s-.05,0-.06.05-.13,0-.13-.07l0-.06a.37.37,0,0,0-.22-.16Zm-1.59,1.34-.07-.07a.16.16,0,0,0-.21,0,2.2,2.2,0,0,0-.21.51v0a.34.34,0,0,1-.36.27h-.16a.34.34,0,0,0-.33.34,1.09,1.09,0,0,1-.23.67l-.08.08a1.14,1.14,0,0,1-.53.36l-.11,0a.34.34,0,0,0-.26.29.54.54,0,0,1-.19.37l-.13.11a1.05,1.05,0,0,1-.65.29L12,20.8a.64.64,0,0,0-.53.33.8.8,0,0,1-.53.36l-.3,0a1.69,1.69,0,0,1-.67,0l-.13,0-.36-.1a.28.28,0,0,0-.32.1L9,21.64a.78.78,0,0,1-.66.27l-.87-.11a.83.83,0,0,1-.36-.13,1.75,1.75,0,0,1-.32-.27L6.44,21a.26.26,0,0,0-.18,0l-.18.08-.75.19a.59.59,0,0,1-.44-.08A.66.66,0,0,0,4.44,21H4.26a.29.29,0,0,0-.21.37l0,.27a.64.64,0,0,1,0,.43.37.37,0,0,0,0,.4l.08.1a2.78,2.78,0,0,0,.41.43,2.33,2.33,0,0,1,.37.44l.2.36a.51.51,0,0,0,.48.29.85.85,0,0,1,.55.2l.41.37a.29.29,0,0,0,.37,0l.07,0a.13.13,0,0,1,.13.14v.07a.43.43,0,0,0,.31.39l.59.14a2.47,2.47,0,0,1,.63.26h.11A.19.19,0,0,0,9,25.48V25a.36.36,0,0,1,.16-.33l.07,0c.06,0,.13.08.1.13V25a.62.62,0,0,0,.17.45.44.44,0,0,0,.45.11,1.09,1.09,0,0,1,.5-.07l.49,0a1.25,1.25,0,0,0,.67-.1,2.22,2.22,0,0,0,.63-.33l.07-.05.41-.36a.62.62,0,0,1,.46-.2h.54a.63.63,0,0,0,.53-.54l.05-.26a.71.71,0,0,1,.2-.47,1.13,1.13,0,0,1,.4-.27l.16-.07a.84.84,0,0,0,.48-.53l.08-.32a1.36,1.36,0,0,1,.4-.7l0,0a.48.48,0,0,0,.08-.59l0-.09a.52.52,0,0,1,0-.5,2,2,0,0,1,.24-.52l.13-.18a.38.38,0,0,0,0-.36.59.59,0,0,1-.14-.37l0-.19v-.45a1,1,0,0,0,0-.45l-.05-.15Zm-1.91-1v0c0-.14-.08-.22-.19-.22h-.35a.77.77,0,0,1-.37,0h-.6a3.75,3.75,0,0,1-.89-.13L11.5,16l-.26-.09-.6-.19a1.18,1.18,0,0,1-.71-.6l-.07-.14a.44.44,0,0,0-.49-.26,1.36,1.36,0,0,1-.66-.11l-.16-.07A.82.82,0,0,1,8,13.73l0-.35A.6.6,0,0,0,7.64,13a3.26,3.26,0,0,1-.54-.31L7,12.6A1.5,1.5,0,0,1,6.57,12l0-.07a1.27,1.27,0,0,1,0-.67l0-.08a1.92,1.92,0,0,0,.06-.53.63.63,0,0,0-.18-.45L6.24,10a.94.94,0,0,1-.36-.71,3,3,0,0,1,0-.85V8.36a.27.27,0,0,0-.26-.27h0a.45.45,0,0,0-.4.27,1.69,1.69,0,0,1-.3.48l-.05.07-.4.4a1,1,0,0,0-.24.53,2.46,2.46,0,0,1-.16.59l0,.07a1,1,0,0,1-.3.4.56.56,0,0,0-.23.42l0,.61a2.56,2.56,0,0,1-.14.81l0,.1a.34.34,0,0,0,.16.44l.55.24.06,0s0,0,.06.07a.08.08,0,0,1,0,.13L4,13.82a.26.26,0,0,0-.16.2l0,.13v0l-.13.75a1.34,1.34,0,0,0,0,.35.27.27,0,0,0,.16.24l.3.13a4,4,0,0,1,.4.27l.13.11a.65.65,0,0,0,.16.13l.06.05a.61.61,0,0,1,.18.31l.13.6a.38.38,0,0,0,.27.33l.21.07a.12.12,0,0,1,.07,0l.27.09a1.3,1.3,0,0,1,.56.34,2.72,2.72,0,0,1,.45.5l.06.05a.41.41,0,0,0,.42.16A2.15,2.15,0,0,1,8,18.62h.2a.8.8,0,0,1,.45.13,4.15,4.15,0,0,0,.47.2h0a.49.49,0,0,0,.47-.05.75.75,0,0,1,.48-.16l.62,0a.37.37,0,0,0,.34-.13h0l.23-.21.07-.07a.56.56,0,0,1,.42-.2h.6a.45.45,0,0,0,.37-.26.5.5,0,0,1,.36-.27l.27-.06a.27.27,0,0,0,.24-.21.7.7,0,0,1,.2-.32l.22-.21a.83.83,0,0,0,.23-.43Z" transform="translate(-0.08 -0.16)"/></svg>