<svg id="Слой_1" data-name="Слой 1" xmlns="http://www.w3.org/2000/svg" viewBox="0 0 21.33 32"><defs><style>.cls-1{fill:#fff;}</style></defs><path class="cls-1" d="M16,16c0-7.11,10.67-7.11,10.67,0S16,23.11,16,16ZM5.33,26.67a5.34,5.34,0,0,1,5.34-5.34H16v5.34c0,7.11-10.67,7.11-10.67,0ZM16,0V10.67h5.33c7.11,0,7.11-10.67,0-10.67ZM5.33,5.33a5.34,5.34,0,0,0,5.34,5.34H16V0H10.67A5.33,5.33,0,0,0,5.33,5.33ZM5.33,16a5.33,5.33,0,0,0,5.34,5.33H16V10.67H10.67A5.33,5.33,0,0,0,5.33,16Z" transform="translate(-5.33 0)"/></svg>