<?xml version="1.0" encoding="utf-8"?>
<!-- Generator: Adobe Illustrator 25.2.3, SVG Export Plug-In . SVG Version: 6.00 Build 0)  -->
<svg version="1.1" id="Слой_1" xmlns="http://www.w3.org/2000/svg" xmlns:xlink="http://www.w3.org/1999/xlink" x="0px" y="0px"
	 viewBox="0 0 512 512" style="enable-background:new 0 0 512 512;" xml:space="preserve">
<style type="text/css">
	.st0{fill:#FFFFFF;}
</style>
<path class="st0" d="M320,24H16v304h176v168h304V192H320V24z M148.3,96L98.1,239.3H132l8.2-23.3H192v80H48V56h240v136h-66.7
	l-33.6-96H148.3z M184.6,184h-33.2l16.6-47.4L184.6,184z M464,224v240H224V224H464z"/>
<path class="st0" d="M317.4,368.5c3.1,4.9,6.4,9.6,10.1,14.1c-11.6,6.3-24.8,9.4-39.5,9.4v32c24.1,0,45.7-6.4,64-18.8
	c18.3,12.4,39.9,18.8,64,18.8v-32c-14.7,0-27.9-3.1-39.5-9.4c3.7-4.5,7-9.2,10.1-14.1c9.2-15,16-31.4,20.1-48.5H424v-32h-56v-24h-32
	v24h-56v32h17.3C301.4,337.1,308.2,353.5,317.4,368.5z M373.5,320c-3.3,11.1-8.1,21.7-14.1,31.5c-2.3,3.6-4.7,7.1-7.4,10.4
	c-2.5-3.1-4.8-6.3-6.9-9.7c-6.3-10.1-11.2-20.9-14.6-32.3H373.5z"/>
</svg>
